<svg width="25" height="26" fill="none" xmlns="http://www.w3.org/2000/svg"><path d="M25 8.39c.008-.87-.298-1.61-.907-2.209-1.818-1.785-3.636-3.573-5.52-5.292-.465-.423-1.176-.813-1.786-.83-2.977-.085-5.96-.063-8.939-.027C6.042.054 4.242 1.89 4.223 3.627c-.024 2.307-.06 4.615-.071 6.922-.002.37-.107.517-.509.51-.886-.014-1.772.007-2.658.022-.54.009-.973.43-.977.95a282.05 282.05 0 00.017 5.995c.01.661.349.942 1.03.957.867.02 1.733.028 2.598.012.387-.008.544.116.542.495-.006.873.02 1.745.029 2.618.021 2.24 1.715 3.865 4.047 3.867 4.268.003 8.538-.048 12.805.025 1.762.03 3.896-1.64 3.913-3.823.019-2.307.005-4.615.005-6.922-.001-2.289-.015-4.577.006-6.865zM4.98 17.726c-1.552 0-2.58-1.077-2.58-2.703 0-1.496.99-2.688 2.626-2.688 1.282 0 2.22.78 2.31 1.843H6.188c-.12-.564-.555-.897-1.185-.897-1.027 0-1.425.89-1.425 1.75 0 1.062.547 1.741 1.41 1.741.705 0 1.126-.404 1.223-1.156h1.162c-.12 1.257-.93 2.11-2.392 2.11zm15.486 6.413c-3.866-.076-7.735-.025-11.601-.042-.477-.002-.997-.017-1.418-.197-.976-.416-1.218-1.528-1.28-2.453a14.203 14.203 0 01.005-1.52c.02-.493-.015-.938.643-.935 3.686.013 7.372.002 11.058-.002.444 0 1.11.078 1.513-.185.332-.218.345-.69.352-1.034a153.9 153.9 0 00-.006-5.644c-.015-.737-.283-1.02-1.06-1.024-2.86-.018-5.72-.02-8.58-.027-1.128-.003-2.256-.015-3.383 0-.367.005-.554-.069-.548-.476.036-2.23.03-4.46.082-6.69.027-1.172.872-1.932 2.1-1.943 2.377-.024 4.753-.041 7.129-.027.867.005 1.166.334 1.191 1.184.029.95.024 1.901.042 2.85.008.369.035.737.063 1.104.042.559.367.828.942.843 1.308.032 2.617.065 3.925.104 1.035.031 1.284.244 1.295 1.254.023 2.133.007 4.267.007 6.4h.014c0 2.018-.051 4.036.016 6.051.051 1.526-1.145 2.436-2.501 2.409zm-10.76-8.755c-.87-.238-1.703-.447-1.703-1.496 0-.932.81-1.539 2.055-1.539 1.125 0 2.033.492 2.055 1.641h-1.11c-.045-.5-.39-.766-1.012-.766-.54 0-.863.216-.863.585 0 .448.57.484 1.635.773.953.26 1.56.615 1.56 1.475 0 1.214-1.11 1.662-2.197 1.662-1.448 0-2.303-.672-2.318-1.836h1.163c.022.694.495.969 1.207.969.615 0 .99-.26.99-.687 0-.405-.36-.477-1.462-.78zm2.745-2.926h1.222l1.2 3.613 1.216-3.613h1.214l-1.777 5.146h-1.328l-1.747-5.146z" fill="#fff"/></svg>