<svg width="79" height="79" viewBox="0 0 79 79" fill="none" xmlns="http://www.w3.org/2000/svg">
<circle cx="39.5" cy="39.5" r="39.5" fill="url(#paint0_linear)"/>
<path d="M38.3034 22.8835C38.2881 22.8984 38.1079 22.932 37.9047 22.9582C36.4975 23.1486 34.7644 23.8058 33.5221 24.6236C32.8435 25.0717 32.4677 25.3779 31.8351 25.994C30.819 26.9836 30.1403 27.9246 29.615 29.0598C29.523 29.254 29.4195 29.4818 29.3811 29.5639C29.3428 29.6461 29.2891 29.788 29.2623 29.8813C29.2354 29.9747 29.2009 30.068 29.1856 30.0904C29.1319 30.1576 28.9517 30.8148 28.8559 31.3003C28.8022 31.5579 28.7447 31.8268 28.7255 31.8978C28.576 32.4392 28.5798 34.5714 28.7293 35.2212C28.7485 35.3145 28.8022 35.5722 28.8443 35.7999C28.8904 36.024 28.9402 36.2443 28.9594 36.2854C28.9785 36.3265 29.0322 36.502 29.0782 36.6775C29.1204 36.853 29.1703 37.0098 29.1856 37.0322C29.2048 37.0509 29.2469 37.1629 29.2815 37.2749C29.3505 37.4841 29.385 37.5625 29.661 38.1525C29.8029 38.4587 29.8873 38.6155 30.0215 38.8246C30.0483 38.8657 30.0981 38.9478 30.1327 39.0113C30.24 39.198 30.7193 39.8888 30.911 40.1241C31.559 40.9344 32.5444 41.8381 33.3879 42.3945C34.3426 43.0255 35.4086 43.5297 36.348 43.791C36.5243 43.8396 36.6815 43.8881 36.7045 43.9031C36.7237 43.9143 36.9499 43.9665 37.1992 44.0114C37.4522 44.0599 37.6708 44.1084 37.6938 44.1234C37.7858 44.1757 38.9284 44.2578 39.6186 44.2578C40.3087 44.2578 41.4513 44.1757 41.5434 44.1234C41.5664 44.1084 41.7849 44.0599 42.038 44.0114C42.2872 43.9665 42.5134 43.9143 42.5326 43.9031C42.5556 43.8881 42.7128 43.8396 42.8892 43.791C44.0816 43.4587 45.4044 42.7716 46.5202 41.909C46.9688 41.5618 47.9274 40.6319 48.2303 40.2436C48.5485 39.8403 49.0393 39.142 49.093 39.0188C49.116 38.9628 49.1505 38.918 49.1697 38.918C49.185 38.918 49.2118 38.8806 49.2272 38.8321C49.2425 38.7873 49.2923 38.6902 49.3384 38.6192C49.4112 38.5035 49.5569 38.2047 49.81 37.6484C49.8521 37.555 49.9173 37.387 49.9557 37.2749C49.9902 37.1629 50.0324 37.0509 50.0515 37.0322C50.0669 37.0098 50.1167 36.853 50.1627 36.6775C50.2087 36.502 50.2624 36.3265 50.2816 36.2854C50.2969 36.2443 50.3468 36.024 50.3928 35.7999C50.435 35.5722 50.4886 35.3145 50.5078 35.2212C50.6573 34.5639 50.6612 32.4467 50.5116 31.8978C50.4925 31.8268 50.435 31.5579 50.3813 31.3003C50.2854 30.8148 50.1052 30.1576 50.0515 30.0904C50.0362 30.068 50.0017 29.9747 49.9748 29.8813C49.948 29.788 49.8943 29.6461 49.856 29.5639C49.8176 29.4818 49.7141 29.254 49.6221 29.0598C49.0968 27.9246 48.4181 26.9836 47.4021 25.994C46.7694 25.3779 46.3937 25.0717 45.715 24.6236C44.6989 23.9552 43.4796 23.4362 42.1875 23.1262C41.3018 22.9096 41.0526 22.8872 39.6339 22.8723C38.9169 22.8648 38.3188 22.8723 38.3034 22.8835Z" fill="white"/>
<path d="M30.6469 42.0541C30.4053 42.1474 29.2397 42.7337 29.0672 42.842C28.9905 42.8905 28.8525 42.9727 28.7643 43.0249C28.492 43.1818 27.5987 43.7643 27.2536 44.0145C27.1002 44.1265 26.5634 44.541 26.4829 44.612C26.4599 44.6306 26.3295 44.7427 26.1953 44.8547C25.8042 45.1796 24.9569 45.9973 24.5735 46.423C24.259 46.7703 23.6839 47.4723 23.5037 47.73C23.2238 48.1333 22.9324 48.5702 22.825 48.7569C22.7522 48.8801 22.6525 49.0481 22.6027 49.1303C22.503 49.3021 21.9815 50.3402 21.9815 50.3663C21.9815 50.3775 21.9393 50.4746 21.8895 50.5791C21.8396 50.6874 21.786 50.8144 21.7706 50.8667C21.7553 50.919 21.7208 51.0086 21.6939 51.0721C21.6671 51.1318 21.6058 51.2998 21.5597 51.4455C21.5137 51.5874 21.4639 51.7405 21.4447 51.7815C21.3949 51.8824 21.2262 52.5246 21.1341 52.9391C21.0958 53.1221 21.0345 53.391 21.0038 53.5366C20.8926 54.037 20.8159 54.7353 20.8044 55.4335L20.7891 56.1318L39.6382 56.1318H58.4873L58.472 55.3589C58.4605 54.6083 58.3991 54.0556 58.2726 53.4806C58.0464 52.4686 58.0655 52.5396 57.7473 51.5762C57.6629 51.3185 57.5824 51.0907 57.5633 51.0721C57.5479 51.0496 57.5057 50.9414 57.4674 50.8293C57.4291 50.7173 57.3562 50.5306 57.3064 50.4186C57.2067 50.202 56.7006 49.205 56.643 49.1116C56.6239 49.0817 56.5203 48.9062 56.413 48.7233C56.0487 48.1071 55.4774 47.323 54.8831 46.6284C54.492 46.1728 53.4491 45.1609 52.9813 44.7837C52.7705 44.612 52.5634 44.4477 52.5212 44.414C52.1761 44.134 51.0949 43.4096 50.5006 43.0586C50.0865 42.8121 48.8787 42.196 48.5413 42.0541C48.3036 41.957 48.2882 41.9607 48.1502 42.0839C47.2913 42.8606 46.0299 43.671 44.7761 44.2609C44.4732 44.4028 44.2086 44.5186 44.1933 44.5186C44.1779 44.5186 44.1204 44.541 44.0667 44.5672C43.7638 44.7203 42.5292 45.0937 42.0001 45.1908C41.7815 45.2318 41.5898 45.2766 41.5745 45.2841C41.5131 45.3214 40.5814 45.4111 40.0024 45.4372C39.3736 45.4633 38.4227 45.4111 37.8553 45.3214C37.3952 45.2505 36.6245 45.0862 36.5324 45.0451C36.4903 45.0227 36.3177 44.9704 36.149 44.9256C35.9803 44.8846 35.8269 44.8323 35.8039 44.8173C35.7848 44.8024 35.6966 44.7688 35.6122 44.7427C35.4397 44.6904 34.9988 44.5149 34.7687 44.4066C34.6843 44.3692 34.531 44.2983 34.4236 44.2497C33.8983 44.007 33.0586 43.5253 32.4528 43.1183C32.1614 42.9241 31.2949 42.2706 31.0763 42.0877C30.9306 41.9607 30.8808 41.957 30.6469 42.0541Z" fill="white"/>
<defs>
<linearGradient id="paint0_linear" x1="39.5" y1="0" x2="39.5" y2="79" gradientUnits="userSpaceOnUse">
<stop stop-color="#3388EE"/>
<stop offset="1" stop-color="#56CCF2"/>
</linearGradient>
</defs>
</svg>
