<svg width="40" height="40" fill="none" xmlns="http://www.w3.org/2000/svg"><rect width="40" height="40" rx="4" fill="url(#paint0_linear)"/><path d="M19.426 12.007a.992.992 0 01-.192.036c-.677.091-1.51.407-2.108.8a4.76 4.76 0 00-.812.66c-.488.476-.815.929-1.068 1.475l-.112.242c-.018.04-.044.108-.057.153a.55.55 0 01-.037.1c-.026.033-.112.349-.159.582a9.63 9.63 0 01-.062.288c-.072.26-.07 1.286.001 1.598l.056.279c.022.108.046.213.055.233.01.02.035.104.057.189.02.084.045.16.052.17a.51.51 0 01.046.117c.033.1.05.139.183.422.068.148.108.223.173.324.013.02.037.059.053.09.052.09.283.422.375.535.312.39.786.824 1.191 1.092.46.303.972.546 1.424.672.085.023.16.046.172.053.009.006.118.031.238.052.121.024.227.047.238.054.044.026.593.065.925.065.332 0 .882-.04.926-.065.011-.007.116-.03.238-.053.12-.022.229-.047.238-.053a1.47 1.47 0 01.172-.053c.573-.16 1.21-.49 1.746-.906.216-.167.677-.614.823-.8.153-.195.389-.53.415-.59.01-.027.027-.048.037-.048.007 0 .02-.018.027-.042a.611.611 0 01.054-.102c.035-.056.105-.2.227-.467.02-.045.051-.126.07-.18a.503.503 0 01.046-.116c.007-.011.031-.087.053-.171.022-.085.048-.169.057-.189a3.3 3.3 0 00.054-.233c.02-.11.046-.234.055-.279.072-.316.074-1.334.002-1.598a9.309 9.309 0 01-.063-.288c-.046-.233-.132-.55-.158-.582a.55.55 0 01-.037-.1 1.26 1.26 0 00-.057-.153l-.113-.242c-.253-.546-.579-.999-1.068-1.475a4.756 4.756 0 00-.811-.66 5.415 5.415 0 00-1.697-.72c-.426-.104-.546-.114-1.228-.122-.345-.003-.633 0-.64.006z" fill="#fff"/><path d="M15.742 21.228a11.3 11.3 0 00-.76.38 13.721 13.721 0 00-.872.564 12.47 12.47 0 00-.371.287l-.139.117c-.188.156-.595.55-.78.754a9.711 9.711 0 00-.514.629 9.592 9.592 0 00-.434.673c-.048.083-.298.582-.298.595 0 .005-.02.052-.045.102a1.44 1.44 0 00-.057.138 1.111 1.111 0 01-.037.1 2.067 2.067 0 00-.064.179 5.466 5.466 0 00-.205.719c-.018.087-.048.217-.063.287a4.92 4.92 0 00-.096.912L11 28h18.133l-.007-.372a4.307 4.307 0 00-.096-.903c-.109-.487-.1-.453-.253-.916a1.973 1.973 0 00-.088-.243.886.886 0 01-.046-.117 2.88 2.88 0 00-.078-.197 18.969 18.969 0 00-.319-.629l-.11-.187a7.733 7.733 0 00-.736-1.007c-.188-.22-.69-.706-.915-.888l-.221-.177a11.808 11.808 0 00-.972-.652c-.2-.119-.78-.415-.943-.484-.114-.046-.122-.045-.188.015-.413.373-1.02.763-1.623 1.047a4.146 4.146 0 01-.341.147c-.146.074-.74.253-.994.3-.105.02-.198.042-.205.045-.03.018-.478.061-.756.074a6.241 6.241 0 01-1.033-.056 6.132 6.132 0 01-.636-.133 1.487 1.487 0 00-.185-.057 1.026 1.026 0 01-.166-.052.479.479 0 00-.092-.036 4.291 4.291 0 01-.406-.162l-.166-.075a8.078 8.078 0 01-.948-.545c-.14-.093-.557-.407-.662-.495-.07-.062-.094-.063-.206-.017z" fill="#fff"/><defs><linearGradient id="paint0_linear" x1="0" y1="0" x2="48" y2="48" gradientUnits="userSpaceOnUse"><stop stop-color="#00D2FF"/><stop offset="1" stop-color="#3A7BD5"/></linearGradient></defs></svg>