<svg width="40" height="40" fill="none" xmlns="http://www.w3.org/2000/svg"><rect width="40" height="40" rx="4" fill="url(#paint0_linear)"/><path d="M15.5 17h.5v-2c0-2.206 1.794-4 4-4s4 1.794 4 4v2h.5c.827 0 1.5.673 1.5 1.5v7c0 .827-.673 1.5-1.5 1.5h-9c-.827 0-1.5-.673-1.5-1.5v-7c0-.827.673-1.5 1.5-1.5zm7.167-2A2.67 2.67 0 0020 12.333 2.67 2.67 0 0017.333 15v2h5.334v-2zm-3.334 7.148v1.519a.666.666 0 101.334 0v-1.519A1.33 1.33 0 0020 19.667a1.33 1.33 0 00-.667 2.481z" fill="#fff"/><defs><linearGradient id="paint0_linear" x1="0" y1="0" x2="48" y2="48" gradientUnits="userSpaceOnUse"><stop stop-color="#00D2FF"/><stop offset="1" stop-color="#3A7BD5"/></linearGradient></defs></svg>