<svg width="71" height="45" fill="none" xmlns="http://www.w3.org/2000/svg"><path d="M66.03 19.17l-1.839-7.166a1.09 1.09 0 00.88-1.06V9.79c0-2.51-2.095-4.55-4.669-4.55h-8.375V2.855c0-1.234-1.03-2.239-2.297-2.239H7.04c-1.266 0-2.297 1.005-2.297 2.24V22.5c0 .598.498 1.083 1.112 1.083.614 0 1.112-.485 1.112-1.083V2.855c0-.04.033-.072.074-.072H49.73c.04 0 .074.032.074.072V22.5c0 .599.497 1.084 1.111 1.084s1.112-.485 1.112-1.084v-1.228h13.12c1.614.001 2.984 1.034 3.455 2.456h-3.457c-.614 0-1.112.485-1.112 1.083v2.311c0 1.872 1.563 3.395 3.484 3.395h1.26v4.766H65.87c-.955-2.686-3.576-4.622-6.654-4.622s-5.7 1.936-6.654 4.622h-.535v-8.16c0-.6-.498-1.084-1.112-1.084-.614 0-1.112.485-1.112 1.083v8.161H26.738c-.954-2.687-3.576-4.622-6.653-4.622-3.078 0-5.7 1.935-6.654 4.622H7.04a.073.073 0 01-.074-.072v-2.383h4.817c.614 0 1.112-.485 1.112-1.084 0-.598-.498-1.083-1.112-1.083H1.112C.498 30.66 0 31.146 0 31.744c0 .599.498 1.084 1.112 1.084h3.631v2.383c0 1.235 1.03 2.239 2.298 2.239h6.005l-.002.072c0 3.784 3.159 6.861 7.04 6.861 3.883 0 7.041-3.078 7.041-6.86l-.002-.073h25.054l-.002.072c0 3.784 3.159 6.861 7.04 6.861 3.883 0 7.042-3.078 7.042-6.86l-.002-.073h3.633c.614 0 1.112-.485 1.112-1.083V24.81c0-2.853-2.16-5.224-4.97-5.64zM52.027 7.406h8.375c1.349 0 2.446 1.07 2.446 2.384v.072h-10.82V7.405zm0 11.7v-7.077h9.879l1.815 7.077H52.027zM20.085 42.218c-2.657 0-4.818-2.106-4.818-4.695 0-2.588 2.161-4.694 4.818-4.694 2.656 0 4.817 2.106 4.817 4.694 0 2.59-2.161 4.695-4.817 4.695zm39.131 0c-2.656 0-4.817-2.106-4.817-4.695 0-2.588 2.16-4.694 4.817-4.694s4.818 2.106 4.818 4.694c0 2.59-2.162 4.695-4.818 4.695zm9.56-13.867h-1.26c-.694 0-1.26-.55-1.26-1.228v-1.228h2.52v2.456z" fill="#fff"/><path d="M20.085 35.284c-1.267 0-2.298 1.004-2.298 2.239 0 1.234 1.03 2.239 2.298 2.239 1.267 0 2.297-1.005 2.297-2.24 0-1.234-1.03-2.238-2.297-2.238zm39.13 0c-1.266 0-2.297 1.004-2.297 2.239 0 1.234 1.03 2.239 2.297 2.239 1.267 0 2.298-1.005 2.298-2.24 0-1.234-1.03-2.238-2.297-2.238zm-13.043-4.623H29.571c-.614 0-1.112.485-1.112 1.083 0 .599.498 1.084 1.112 1.084h16.601c.614 0 1.112-.485 1.112-1.084 0-.598-.498-1.083-1.112-1.083zm-28.46-4.621H3.482c-.613 0-1.11.484-1.11 1.082 0 .599.497 1.084 1.11 1.084h14.23c.614 0 1.112-.485 1.112-1.084 0-.598-.498-1.083-1.112-1.083zm20.945-14.706a1.132 1.132 0 00-1.572 0L27.2 20.968l-5.143-5.012a1.132 1.132 0 00-1.572 0 1.064 1.064 0 000 1.532l5.929 5.778c.217.212.502.317.786.317.284 0 .569-.105.786-.317l10.672-10.4a1.064 1.064 0 000-1.532z" fill="#fff"/></svg>