<svg width="52" height="49" fill="none" xmlns="http://www.w3.org/2000/svg"><path d="M39.436 7.305c.022.001.044.003.067.003a.834.834 0 00.115-.009 1.864 1.864 0 011.826 1.86.834.834 0 001.668 0 3.536 3.536 0 00-2.775-3.447V4.91a.834.834 0 00-1.668 0v.839a3.53 3.53 0 00.912 6.94 1.863 1.863 0 11-1.862 1.863.834.834 0 00-1.668 0 3.536 3.536 0 002.618 3.41v.914a.834.834 0 101.668 0v-.875a3.53 3.53 0 00-.756-6.979 1.863 1.863 0 01-.145-3.718z" fill="#fff"/><path d="M39.63 0c-5.13 0-9.508 3.347-11.148 7.83H7.786c-.459 0-.83.412-.834.87l-.197 29.252h-5.9c-.46 0-.855.333-.855.794v3.712a6.55 6.55 0 006.254 6.524V49h25.745v-.024c.208.007.294.024.426.024h.018a6.55 6.55 0 006.54-6.55V23.684c.208.011.428.017.644.017 6.528 0 11.84-5.322 11.84-11.85S46.157 0 39.629 0zM6.57 47.332h-.005a4.905 4.905 0 01-4.898-4.882v-2.83h24.181v2.818a6.541 6.541 0 001.93 4.635c.088.087.197.155.289.26H6.57zm30.743-4.882a4.882 4.882 0 01-4.872 4.882h-.016a4.918 4.918 0 01-4.91-4.893v-3.693a.77.77 0 00-.795-.794H8.423l.191-28.455H28.02a12.523 12.523 0 00-.229 2.316 11.757 11.757 0 001.007 4.771H20.92a.834.834 0 100 1.668h8.78a11.767 11.767 0 007.613 5.222V42.45zm2.315-20.417c-5.617 0-10.17-4.554-10.17-10.171 0-5.618 4.553-10.171 10.17-10.171S49.8 6.245 49.8 11.86c-.006 5.616-4.556 10.166-10.17 10.172z" fill="#fff"/><path d="M15.57 22.134c-1.473 0-2.67 1.159-2.67 2.584s1.197 2.584 2.67 2.584c1.471 0 2.668-1.159 2.668-2.584s-1.197-2.584-2.669-2.584zm0 3.5c-.553 0-1.002-.41-1.002-.916s.45-.916 1.001-.916c.552 0 1.002.41 1.002.916 0 .505-.45.916-1.002.916zm4.518-.92c0 .46.373.834.834.834h11.116a.834.834 0 000-1.668H20.922a.834.834 0 00-.834.834zm-4.518-9.829c-1.473 0-2.67 1.16-2.67 2.585s1.197 2.584 2.67 2.584c1.471 0 2.668-1.16 2.668-2.584 0-1.425-1.197-2.585-2.669-2.585zm0 3.501c-.553 0-1.002-.41-1.002-.916 0-.505.45-.917 1.001-.917.552 0 1.002.411 1.002.917 0 .505-.45.917-1.002.917zm0 10.995c-1.473 0-2.67 1.16-2.67 2.584 0 1.426 1.197 2.585 2.67 2.585 1.471 0 2.668-1.16 2.668-2.584 0-1.425-1.197-2.585-2.669-2.585zm0 3.501c-.553 0-1.002-.41-1.002-.916s.45-.917 1.001-.917c.552 0 1.002.411 1.002.916 0 .506-.45.917-1.002.917zm16.468-1.705H20.922a.834.834 0 100 1.667h11.116a.834.834 0 100-1.667z" fill="#fff"/></svg>