<svg width="62" height="43" fill="none" xmlns="http://www.w3.org/2000/svg"><path d="M61.8 14.926l-5.81-7.732c-.002-.002-.128-.226-.518-.35L31.272.037a1.005 1.005 0 00-.544 0l-24.2 6.807s-.33.095-.529.362l-5.8 7.72a.994.994 0 00.48 1.54L5.8 18.199v13.844c0 .404.244.767.618.921l24.2 9.961c.072.03.163.076.382.076s.382-.076.382-.076l24.2-9.961a.996.996 0 00.618-.92V18.197l5.121-1.732a.994.994 0 00.48-1.54zm-59.174.095l4.566-6.077 1.847.507 10.392 2.851L29.26 15l-5.765 7.077-20.869-7.055zM30 40.514L7.8 31.376V18.874l15.712 5.312a1 1 0 001.098-.316L30 17.253v23.261zm1-27.103L10.522 7.79 31 2.031l20.478 5.76L31 13.411zm23.2 17.965L32 40.514V17.253l5.39 6.618a1.001 1.001 0 001.098.316L54.2 18.874v12.502zm-15.695-9.3L32.74 15l22.068-6.056 4.566 6.077-20.87 7.056z" fill="#fff"/></svg>