<svg width="36" height="49" fill="none" xmlns="http://www.w3.org/2000/svg"><path d="M36 24.507v23.137C36 48.72 35.73 49 34.689 49H1.311C.27 49 0 48.72 0 47.644V1.356C0 .28.27 0 1.298 0h33.378c1.041 0 1.311.28 1.311 1.356C36 9.07 36 16.794 36 24.506zm-1.928 22.512V1.995H1.941v45.024h32.131z" fill="#fff"/><path d="M17.981 13.723H5.091c-1.003 0-1.312-.32-1.312-1.37V5.239c0-1.01.322-1.33 1.311-1.33h25.821c1.002 0 1.311.32 1.311 1.37v7.06c0 1.078-.296 1.383-1.35 1.383h-12.89zm12.313-7.806H5.72v5.81h24.574v-5.81zM12.378 23.51h7.21c.206 0 .424.013.617.08.411.132.63.451.63.903 0 .466-.219.798-.656.931-.18.053-.373.067-.565.067H4.962c-.707-.014-1.157-.386-1.157-.971-.013-.585.45-.984 1.144-.997h1.44c1.979 0 3.984 0 5.989-.014 0 .014 0 0 0 0zm-.092-5.865h-7.21c-.154 0-.321.014-.476-.013a.967.967 0 01-.81-.918.953.953 0 01.72-.984c.206-.04.412-.053.617-.053h14.46c.796 0 1.233.346 1.233.984 0 .625-.437.97-1.234.97-2.429.014-4.858.014-7.3.014zm.04 15.691h-7.21c-.193 0-.385 0-.578-.04a.947.947 0 01-.746-1.01.979.979 0 01.874-.905h15.089c.09 0 .193 0 .283.014.45.08.771.465.784.93.013.453-.257.851-.681.958-.193.053-.411.053-.617.053h-7.198zm-.001-13.723h7.455c.732 0 1.182.532 1.028 1.21-.09.386-.334.639-.72.705-.193.04-.385.027-.578.027H5.14c-.899 0-1.349-.32-1.349-.97-.013-.652.45-.985 1.337-.985 2.39.013 4.794.013 7.197.013zm.001 9.787H4.872c-.489 0-.848-.16-1.028-.652-.219-.585.14-1.21.758-1.276.424-.053.861-.027 1.298-.027h13.65c.154 0 .32 0 .475.027.488.08.81.465.797.957 0 .505-.36.918-.861.958-.437.026-.861.013-1.298.013h-6.337zm15.101-3.91c-1.22 0-2.429.014-3.65 0-.784-.013-1.246-.704-.95-1.37.166-.385.475-.584.873-.584 2.52-.013 5.026-.013 7.545 0 .565 0 .964.439.964.957.012.545-.399.984-.99.998-1.26.013-2.532 0-3.792 0zm.039-7.845h-3.598c-.694 0-1.144-.412-1.131-.997.012-.572.45-.958 1.118-.958h7.249c.668 0 1.105.4 1.105.984 0 .585-.437.971-1.093.984-1.22-.013-2.442-.013-3.65-.013zm.051 13.723h3.598c.656 0 1.093.4 1.093.984 0 .559-.424.97-1.054.97a643.48 643.48 0 01-7.352 0c-.655 0-1.092-.438-1.067-1.01.026-.558.45-.944 1.08-.944h3.702zm-.09-1.968H23.83c-.669 0-1.093-.399-1.093-.984.013-.558.424-.957 1.067-.97 2.455-.014 4.897 0 7.352 0 .655 0 1.054.385 1.066.957.013.572-.424.984-1.092.984-1.234.013-2.468.013-3.702.013zm.064-9.787h3.599c.681 0 1.105.36 1.118.944.013.585-.411.998-1.08.998a692.79 692.79 0 01-7.351 0c-.849 0-1.35-.838-.874-1.477.18-.239.578-.425.887-.438 1.233-.053 2.467-.027 3.701-.027z" fill="#fff"/><path d="M17.942 9.8H8.714c-.745 0-1.157-.386-1.13-1.037a.938.938 0 01.77-.891c.155-.027.322-.027.476-.027h18.276c.18 0 .36 0 .527.027.45.066.759.452.771.93 0 .493-.321.905-.797.971a4.208 4.208 0 01-.578.027h-9.087zm3.188 31.355l-.013-.4c0-1.01 0-2.034.013-3.058 0-.585-.347-.944-.912-.944h-4.434c-.566 0-.913.36-.913.944v6.928c0 .147.013.28.141.346.142.08.258.013.36-.066.836-.599 1.658-1.197 2.494-1.809.103-.08.167-.066.257 0 .822.599 1.658 1.197 2.48 1.795.116.08.232.147.373.08.141-.08.154-.213.154-.359v-3.457z" fill="#fff"/></svg>