<svg width="36" height="49" fill="none" xmlns="http://www.w3.org/2000/svg"><path d="M36 24.507v23.137C36 48.72 35.73 49 34.689 49H1.311C.27 49 0 48.72 0 47.644V1.356C0 .28.27 0 1.298 0h33.378c1.041 0 1.311.28 1.311 1.356C36 9.07 36 16.794 36 24.506zm-1.928 22.512V1.995H1.941v45.024h32.131z" fill="#fff"/><path d="M17.981 13.723H5.091c-1.003 0-1.312-.32-1.312-1.37V5.239c0-1.01.322-1.33 1.311-1.33h25.821c1.002 0 1.311.32 1.311 1.37v7.06c0 1.078-.296 1.383-1.35 1.383h-12.89zm12.326-7.806H5.733v5.81h24.574v-5.81zM12.39 23.51h7.21a1.9 1.9 0 01.616.08c.412.132.63.451.63.903 0 .466-.218.798-.655.931a2.01 2.01 0 01-.566.067H4.973c-.706-.014-1.156-.386-1.156-.971-.013-.585.45-.984 1.144-.997H6.4c1.98 0 3.984 0 5.99-.014 0 .014 0 0 0 0zm-.09-5.865H5.09c-.155 0-.322.014-.476-.013a.967.967 0 01-.81-.918.953.953 0 01.72-.984c.206-.04.411-.053.617-.053H19.6c.796 0 1.233.346 1.233.984 0 .625-.437.97-1.234.97-2.43.014-4.871.014-7.3.014zm.026 15.691h-7.21c-.193 0-.385 0-.578-.04a.947.947 0 01-.746-1.01.979.979 0 01.874-.905h15.089c.09 0 .193 0 .283.014.45.08.771.465.784.93.013.453-.257.851-.681.958-.193.053-.411.053-.617.053h-7.198zm.013-13.723h7.455c.732 0 1.182.532 1.028 1.21-.09.386-.334.639-.72.705-.193.04-.386.027-.578.027H5.154c-.9 0-1.349-.32-1.349-.97-.013-.652.45-.985 1.337-.985 2.39.013 4.794.013 7.197.013zm-.001 9.787H4.883c-.488 0-.848-.16-1.028-.652-.218-.585.142-1.21.759-1.276.424-.053.86-.027 1.298-.027h13.65c.153 0 .32 0 .475.027.488.08.81.465.797.957 0 .505-.36.918-.862.958-.437.026-.86.013-1.298.013h-6.336zm2.84 13.404c.334-.373.604-.705.887-1.011l5.784-5.984c.128-.133.244-.266.398-.359.386-.266.861-.2 1.183.146.308.333.36.798.115 1.184-.09.146-.218.28-.347.412-2.378 2.46-4.755 4.933-7.133 7.393-.656.679-1.105.679-1.748.014l-1.49-1.543c-.566-.585-.63-1.157-.194-1.595.437-.44.977-.373 1.543.226.308.345.617.704 1.002 1.117zM27.441 25.49c-1.22 0-2.429.014-3.65 0-.784-.013-1.247-.704-.951-1.37.167-.385.476-.584.874-.584 2.519-.013 5.025-.013 7.544 0 .566 0 .964.439.964.957.013.545-.398.984-.99.998-1.259.013-2.531 0-3.79 0zm.037-7.845H23.88c-.694 0-1.144-.412-1.13-.997.012-.572.45-.958 1.117-.958h7.25c.668 0 1.105.4 1.105.984 0 .585-.437.971-1.093.984-1.22-.013-2.442-.013-3.65-.013zm.052 13.723h3.599c.655 0 1.092.4 1.092.984 0 .559-.424.97-1.053.97a643.48 643.48 0 01-7.352 0c-.656 0-1.093-.438-1.067-1.01.026-.558.45-.944 1.08-.944h3.701zm-.089-1.968h-3.598c-.669 0-1.093-.399-1.093-.984.013-.558.424-.957 1.067-.97 2.455-.014 4.897 0 7.351 0 .656 0 1.054.385 1.067.957.013.572-.424.984-1.092.984-1.247.013-2.48.013-3.702.013zm.05-9.787h3.599c.681 0 1.105.36 1.118.944.013.585-.411.998-1.08.998a692.79 692.79 0 01-7.351 0c-.849 0-1.35-.838-.874-1.477.18-.239.578-.425.887-.438 1.233-.053 2.467-.027 3.701-.027z" fill="#fff"/><path d="M17.954 9.8H8.726c-.746 0-1.157-.386-1.131-1.037a.938.938 0 01.771-.891c.154-.027.321-.027.476-.027h18.276c.18 0 .36 0 .527.027.45.066.758.452.771.93 0 .493-.321.905-.797.971-.193.027-.385.027-.578.027h-9.087z" fill="#fff"/></svg>