<svg width="25" height="26" fill="none" xmlns="http://www.w3.org/2000/svg"><path d="M4.868 13.402h-1.04v1.467h1.033c.52 0 .906-.165.906-.73 0-.544-.386-.737-.899-.737zm4.76.014h-.846v3.235h.847c1.062 0 1.537-.594 1.537-1.618 0-1.023-.49-1.617-1.537-1.617zm0 0h-.846v3.235h.847c1.062 0 1.537-.594 1.537-1.618 0-1.023-.49-1.617-1.537-1.617zm-4.76-.014h-1.04v1.467h1.033c.52 0 .906-.165.906-.73 0-.544-.386-.737-.899-.737zM25 8.39c.008-.87-.298-1.61-.907-2.209-1.818-1.785-3.636-3.573-5.52-5.292-.465-.423-1.176-.813-1.786-.83-2.977-.085-5.96-.063-8.939-.027C6.042.054 4.242 1.89 4.223 3.627c-.024 2.307-.06 4.615-.071 6.922-.002.37-.107.517-.509.51-.886-.014-1.772.007-2.658.022-.54.009-.973.43-.977.95a282.05 282.05 0 00.017 5.995c.01.661.349.942 1.03.957.867.02 1.733.028 2.598.012.387-.008.544.116.542.495-.006.873.02 1.745.029 2.618.021 2.24 1.715 3.865 4.047 3.867 4.268.003 8.538-.048 12.805.025 1.762.03 3.896-1.64 3.913-3.823.019-2.307.005-4.615.005-6.922-.001-2.289-.015-4.577.006-6.865zM5.016 15.75H3.828v1.832H2.677v-5.095h2.28c1.144 0 1.939.515 1.939 1.638 0 1.11-.817 1.625-1.88 1.625zm15.45 8.39c-3.866-.076-7.735-.025-11.601-.042-.477-.002-.997-.017-1.418-.197-.976-.416-1.218-1.528-1.28-2.453a14.464 14.464 0 01.005-1.52c.02-.493-.015-.938.643-.935 3.686.013 7.372.002 11.058-.002.444 0 1.111.078 1.513-.185.333-.218.345-.69.352-1.034.034-1.88.03-3.764-.006-5.644-.015-.737-.283-1.02-1.06-1.024-2.86-.018-5.72-.02-8.58-.027-1.128-.003-2.256-.015-3.383 0-.367.005-.554-.069-.548-.476.036-2.23.03-4.46.082-6.69.027-1.172.872-1.932 2.1-1.943 2.377-.024 4.753-.041 7.129-.027.867.005 1.166.334 1.191 1.184.029.95.024 1.901.042 2.85.008.369.035.737.063 1.104.042.559.367.828.942.843 1.308.032 2.617.065 3.925.104 1.035.031 1.284.244 1.295 1.254.023 2.133.007 4.267.007 6.4h.014c0 2.018-.051 4.036.016 6.051.051 1.526-1.145 2.436-2.501 2.409zM7.63 17.581v-5.095h2.14c1.641 0 2.563.9 2.563 2.547 0 1.639-.922 2.548-2.563 2.548H7.63zm8.89-2.977v.887h-2.235v2.09h-1.159v-5.095h3.729v.937h-2.57v1.18h2.236zm-5.355.429c0-1.023-.49-1.617-1.537-1.617h-.847v3.235h.847c1.062 0 1.537-.594 1.537-1.618zm-6.298-1.631h-1.04v1.467H4.86c.52 0 .906-.165.906-.73 0-.544-.386-.737-.899-.737zm0 0h-1.04v1.467H4.86c.52 0 .906-.165.906-.73 0-.544-.386-.737-.899-.737zm0 0h-1.04v1.467H4.86c.52 0 .906-.165.906-.73 0-.544-.386-.737-.899-.737z" fill="#fff"/></svg>