<svg width="23" height="21" fill="none" xmlns="http://www.w3.org/2000/svg"><path d="M21.444 5.113h-2.471V1.08a.667.667 0 00-.667-.667H5.634a.667.667 0 00-.666.667v4.034H2.497A1.557 1.557 0 00.94 6.67v8.558c0 .858.699 1.556 1.557 1.556h2.47v3.308c0 .369.3.667.667.667h12.672a.667.667 0 00.666-.667v-3.308h2.471c.858 0 1.557-.698 1.557-1.556V6.67c0-.859-.698-1.557-1.556-1.557zM6.3 1.746h11.34v3.367H6.3V1.746zm11.34 17.678H6.3v-6.616h11.34v6.616zm4.027-4.197c0 .12-.102.222-.223.222h-2.47V12.14a.667.667 0 00-.667-.667H5.634a.667.667 0 00-.666.667v3.308H2.497a.225.225 0 01-.223-.222V6.67c0-.121.102-.223.223-.223h18.946c.12 0 .223.102.223.223v8.557z" fill="#fff"/></svg>