<svg width="7" height="12" viewBox="0 0 7 12" fill="none" xmlns="http://www.w3.org/2000/svg">
<path d="M3.49999 11.9998C3.37453 11.9998 3.2491 11.9494 3.15345 11.8488L0.143599 8.68063C-0.0478664 8.47909 -0.0478664 8.15234 0.143599 7.95089C0.334987 7.74944 0.645354 7.74944 0.836835 7.95089L3.49999 10.7542L6.16316 7.95099C6.35462 7.74954 6.66496 7.74954 6.85633 7.95099C7.04789 8.15244 7.04789 8.47919 6.85633 8.68072L3.84653 11.8489C3.75083 11.9495 3.6254 11.9998 3.49999 11.9998Z" fill="#4E4E4E"/>
<path d="M3.49999 0.8C3.37453 0.8 3.2491 0.85042 3.15345 0.951048L0.143599 4.11918C-0.0478664 4.32071 -0.0478664 4.64746 0.143599 4.84891C0.334987 5.05036 0.645354 5.05036 0.836835 4.84891L3.49999 2.04557L6.16316 4.84881C6.35462 5.05026 6.66496 5.05026 6.85633 4.84881C7.04789 4.64736 7.04789 4.32061 6.85633 4.11908L3.84653 0.95095C3.75083 0.850306 3.6254 0.8 3.49999 0.8Z" fill="#4E4E4E"/>
</svg>
