<svg width="26" height="17" viewBox="0 0 26 17" fill="none" xmlns="http://www.w3.org/2000/svg">
<path d="M23.2916 0H2.70831C1.2155 0 0 1.19212 0 2.65628V14.3438C0 15.8079 1.2155 17 2.70831 17H23.2916C24.7844 17 25.9999 15.8079 25.9999 14.3438V2.65628C26 1.19212 24.7845 0 23.2916 0ZM24.9166 14.3437C24.9166 15.2224 24.1876 15.9375 23.2916 15.9375H2.70831C1.81238 15.9375 1.08331 15.2224 1.08331 14.3437V2.65628C1.08331 1.77758 1.81238 1.06253 2.70831 1.06253H23.2916C24.1875 1.06253 24.9166 1.77758 24.9166 2.65628L24.9166 14.3437Z" fill="white"/>
<path d="M25.4583 3.18749H0.541683C0.242683 3.18749 0 3.42551 0 3.71876V6.90625C0 7.1995 0.242683 7.43752 0.541683 7.43752H25.4583C25.7573 7.43752 26 7.1995 26 6.90625V3.71876C25.9999 3.42551 25.7573 3.18749 25.4583 3.18749ZM24.9166 6.37498H1.08331V4.24997H24.9166L24.9166 6.37498Z" fill="white"/>
<path d="M10.2917 10.625H3.79168C3.49268 10.625 3.24999 10.863 3.24999 11.1563C3.24999 11.4495 3.49268 11.6875 3.79168 11.6875H10.2917C10.5907 11.6875 10.8333 11.4495 10.8333 11.1562C10.8333 10.863 10.5907 10.625 10.2917 10.625Z" fill="white"/>
<path d="M10.2917 12.75H3.79168C3.49268 12.75 3.24999 12.988 3.24999 13.2812C3.24999 13.5745 3.49268 13.8125 3.79168 13.8125H10.2917C10.5907 13.8125 10.8333 13.5745 10.8333 13.2812C10.8333 12.988 10.5907 12.75 10.2917 12.75Z" fill="white"/>
<path d="M21.125 9.56248H20.0416C19.1457 9.56248 18.4166 10.2775 18.4166 11.1562V12.2187C18.4166 13.0974 19.1457 13.8125 20.0416 13.8125H21.125C22.0209 13.8125 22.75 13.0974 22.75 12.2187V11.1562C22.75 10.2776 22.0209 9.56248 21.125 9.56248ZM21.6666 12.2188C21.6666 12.512 21.424 12.75 21.125 12.75H20.0416C19.7426 12.75 19.5 12.512 19.5 12.2188V11.1563C19.5 10.863 19.7426 10.625 20.0416 10.625H21.125C21.424 10.625 21.6666 10.863 21.6666 11.1563V12.2188Z" fill="white"/>
</svg>
