<svg width="30" height="30" fill="none" xmlns="http://www.w3.org/2000/svg"><circle cx="15" cy="15" r="15" fill="#fff"/><path d="M14.546 8.69a.779.779 0 01-.151.028 4.359 4.359 0 00-1.664.633c-.258.17-.4.286-.641.52a3.786 3.786 0 00-.843 1.164l-.089.192a1.004 1.004 0 00-.045.12.437.437 0 01-.03.08c-.02.025-.088.275-.124.46-.02.097-.043.199-.05.226-.057.206-.055 1.015.002 1.262l.043.22c.018.085.037.168.044.184.007.016.027.082.045.149a.84.84 0 00.04.135c.008.007.024.05.037.092.026.08.04.11.144.333.054.116.086.176.137.255.01.016.03.047.042.071.041.071.223.334.296.423.246.308.62.65.94.862.363.24.768.431 1.125.53.067.019.126.037.135.043.007.004.093.024.188.041.096.018.179.037.188.043.035.02.469.05.73.05.263 0 .697-.03.732-.05.008-.006.091-.024.187-.043.095-.017.181-.037.188-.041.009-.006.069-.024.136-.043a4.215 4.215 0 001.378-.714 5.51 5.51 0 00.65-.633 5.26 5.26 0 00.328-.465c.008-.021.021-.038.029-.038.006 0 .016-.014.022-.033a.484.484 0 01.042-.08 4.314 4.314 0 00.234-.511.402.402 0 01.037-.092.962.962 0 00.042-.135c.017-.067.038-.133.045-.149.006-.015.025-.1.042-.184.016-.087.037-.185.044-.22.057-.25.058-1.054.001-1.262a7.325 7.325 0 01-.05-.227c-.036-.184-.104-.434-.124-.46a.427.427 0 01-.03-.079.987.987 0 00-.045-.12l-.088-.192A3.786 3.786 0 0018 9.871a3.76 3.76 0 00-.64-.52 4.275 4.275 0 00-1.34-.569c-.336-.082-.43-.09-.97-.096a7.7 7.7 0 00-.505.004z" fill="#3489EE"/><path d="M11.638 15.97a8.966 8.966 0 00-.6.3l-.115.069c-.103.06-.443.28-.574.375-.058.043-.262.2-.292.227l-.11.093c-.148.123-.47.433-.615.595-.12.132-.338.398-.407.496a7.621 7.621 0 00-.342.532 9.85 9.85 0 00-.236.47.696.696 0 01-.035.08c-.019.041-.039.09-.045.11a.894.894 0 01-.029.078 1.76 1.76 0 00-.05.141 4.32 4.32 0 00-.162.567l-.05.227a3.83 3.83 0 00-.076.72l-.005.266H22.21l-.006-.294a3.4 3.4 0 00-.075-.713c-.086-.384-.079-.357-.2-.723a1.543 1.543 0 00-.07-.191.71.71 0 01-.036-.093 2.305 2.305 0 00-.061-.156c-.038-.082-.23-.46-.252-.496a6.1 6.1 0 00-.668-.943 8.095 8.095 0 00-.723-.7 7.843 7.843 0 00-.174-.14 9.333 9.333 0 00-.768-.516 10.578 10.578 0 00-.744-.381c-.09-.037-.096-.036-.148.011a5.52 5.52 0 01-1.55.943c-.116.058-.585.2-.786.237a2.01 2.01 0 00-.161.035c-.024.015-.377.049-.597.059-.239.01-.6-.01-.816-.044a4.81 4.81 0 01-.502-.105 1.18 1.18 0 00-.146-.046.814.814 0 01-.13-.04.38.38 0 00-.073-.03 3.37 3.37 0 01-.32-.127 6.375 6.375 0 01-.88-.49c-.11-.073-.44-.32-.523-.39-.055-.049-.074-.05-.163-.013z" fill="#3489EE"/></svg>